<svg width="20" height="21" viewBox="0 0 20 21" fill="none" xmlns="http://www.w3.org/2000/svg">
<rect x="2" width="16" height="16" fill="black"/>
<path d="M3.322 16.132C2.75733 16.132 2.26233 16.033 1.837 15.835C1.41167 15.637 1.078 15.3547 0.836 14.988C0.601333 14.6213 0.480333 14.185 0.473 13.679H1.705C1.71233 14.0897 1.85533 14.438 2.134 14.724C2.41267 15.01 2.805 15.153 3.311 15.153C3.75833 15.153 4.10667 15.0467 4.356 14.834C4.61267 14.614 4.741 14.3353 4.741 13.998C4.741 13.7267 4.67867 13.5067 4.554 13.338C4.43667 13.1693 4.27167 13.03 4.059 12.92C3.85367 12.81 3.61533 12.711 3.344 12.623C3.07267 12.535 2.78667 12.4397 2.486 12.337C1.892 12.139 1.44467 11.8823 1.144 11.567C0.850667 11.2517 0.704 10.8373 0.704 10.324C0.696667 9.89133 0.795667 9.51367 1.001 9.191C1.21367 8.86833 1.507 8.619 1.881 8.443C2.26233 8.25967 2.706 8.168 3.212 8.168C3.71067 8.168 4.147 8.25967 4.521 8.443C4.90233 8.62633 5.19933 8.883 5.412 9.213C5.62467 9.53567 5.73467 9.91333 5.742 10.346H4.51C4.51 10.148 4.45867 9.961 4.356 9.785C4.25333 9.60167 4.103 9.45133 3.905 9.334C3.707 9.21667 3.465 9.158 3.179 9.158C2.81233 9.15067 2.508 9.24233 2.266 9.433C2.03133 9.62367 1.914 9.88767 1.914 10.225C1.914 10.5257 2.002 10.7567 2.178 10.918C2.354 11.0793 2.596 11.215 2.904 11.325C3.212 11.4277 3.564 11.5487 3.96 11.688C4.34133 11.8127 4.68233 11.963 4.983 12.139C5.28367 12.315 5.522 12.546 5.698 12.832C5.88133 13.118 5.973 13.481 5.973 13.921C5.973 14.3097 5.874 14.6727 5.676 15.01C5.478 15.34 5.181 15.6113 4.785 15.824C4.389 16.0293 3.90133 16.132 3.322 16.132ZM10.5918 16.132C9.8658 16.132 9.23146 15.967 8.6888 15.637C8.14613 15.307 7.72446 14.845 7.4238 14.251C7.12313 13.657 6.9728 12.964 6.9728 12.172C6.9728 11.3873 7.1268 10.6943 7.4348 10.093C7.7428 9.49167 8.17913 9.02233 8.7438 8.685C9.3158 8.34033 9.99046 8.168 10.7678 8.168C11.6478 8.168 12.3811 8.38067 12.9678 8.806C13.5545 9.23133 13.9358 9.818 14.1118 10.566H12.7918C12.6745 10.1553 12.4435 9.83267 12.0988 9.598C11.7541 9.36333 11.3105 9.246 10.7678 9.246C9.96113 9.246 9.3268 9.50633 8.8648 10.027C8.4028 10.5477 8.1718 11.2663 8.1718 12.183C8.1718 13.0997 8.39913 13.8147 8.8538 14.328C9.30846 14.8413 9.91346 15.098 10.6688 15.098C11.4315 15.098 12.0035 14.8817 12.3848 14.449C12.7735 14.0163 13.0008 13.4407 13.0668 12.722H10.9768V11.82H14.2438V16H13.1768L13.0778 14.867C12.8211 15.2703 12.4985 15.582 12.1098 15.802C11.7211 16.022 11.2151 16.132 10.5918 16.132Z" fill="#FFF2E8"/>
</svg>
