<svg width="1149" height="175" viewBox="0 0 1149 175" fill="none" xmlns="http://www.w3.org/2000/svg">
<path d="M63.68 174.38C51.36 174.38 40.48 172.3 31.04 168.14C21.6 163.82 14.16 157.74 8.72 149.9C3.28 141.9 0.480001 132.22 0.32 120.86H32.72C33.04 128.7 35.84 135.34 41.12 140.78C46.56 146.06 54 148.7 63.44 148.7C71.6 148.7 78.08 146.78 82.88 142.94C87.68 138.94 90.08 133.66 90.08 127.1C90.08 120.22 87.92 114.86 83.6 111.02C79.44 107.18 73.84 104.06 66.8 101.66C59.76 99.26 52.24 96.7 44.24 93.98C31.28 89.5 21.36 83.74 14.48 76.7C7.76 69.66 4.4 60.3 4.4 48.62C4.24 38.7 6.56 30.22 11.36 23.18C16.32 15.98 23.04 10.46 31.52 6.61999C40 2.62 49.76 0.619997 60.8 0.619997C72 0.619997 81.84 2.62 90.32 6.61999C98.96 10.62 105.68 16.22 110.48 23.42C115.44 30.62 118.08 39.18 118.4 49.1H85.52C85.36 43.18 83.04 37.98 78.56 33.5C74.24 28.86 68.16 26.54 60.32 26.54C53.6 26.38 47.92 28.06 43.28 31.58C38.8 34.94 36.56 39.9 36.56 46.46C36.56 52.06 38.32 56.54 41.84 59.9C45.36 63.1 50.16 65.82 56.24 68.06C62.32 70.3 69.28 72.7 77.12 75.26C85.44 78.14 93.04 81.5 99.92 85.34C106.8 89.18 112.32 94.3 116.48 100.7C120.64 106.94 122.72 115.02 122.72 124.94C122.72 133.74 120.48 141.9 116 149.42C111.52 156.94 104.88 163.02 96.08 167.66C87.28 172.14 76.48 174.38 63.68 174.38ZM228.243 174.38C211.443 174.38 196.723 170.7 184.083 163.34C171.603 155.98 161.763 145.82 154.563 132.86C147.523 119.74 144.003 104.62 144.003 87.5C144.003 70.38 147.523 55.34 154.563 42.38C161.763 29.26 171.603 19.02 184.083 11.66C196.723 4.3 211.443 0.619997 228.243 0.619997C244.883 0.619997 259.523 4.3 272.163 11.66C284.803 19.02 294.643 29.26 301.683 42.38C308.723 55.34 312.243 70.38 312.243 87.5C312.243 104.62 308.723 119.74 301.683 132.86C294.643 145.82 284.803 155.98 272.163 163.34C259.523 170.7 244.883 174.38 228.243 174.38ZM228.243 146.78C244.243 146.78 256.963 141.5 266.403 130.94C276.003 120.38 280.803 105.9 280.803 87.5C280.803 69.1 276.003 54.62 266.403 44.06C256.963 33.5 244.243 28.22 228.243 28.22C212.243 28.22 199.443 33.5 189.843 44.06C180.243 54.62 175.443 69.1 175.443 87.5C175.443 105.9 180.243 120.38 189.843 130.94C199.443 141.5 212.243 146.78 228.243 146.78ZM339.367 171.5V3.49999H370.087V147.5H444.487V171.5H339.367ZM529.76 174.38C513.92 174.38 500.08 170.78 488.24 163.58C476.4 156.38 467.2 146.38 460.64 133.58C454.08 120.62 450.8 105.58 450.8 88.46C450.8 71.18 454.16 55.98 460.88 42.86C467.76 29.58 477.44 19.26 489.92 11.9C502.56 4.38 517.52 0.619997 534.8 0.619997C554.48 0.619997 570.8 5.33999 583.76 14.78C596.72 24.22 605.12 37.26 608.96 53.9H574.64C572.08 46.06 567.44 39.98 560.72 35.66C554 31.18 545.36 28.94 534.8 28.94C518 28.94 505.04 34.3 495.92 45.02C486.8 55.58 482.24 70.14 482.24 88.7C482.24 107.26 486.72 121.66 495.68 131.9C504.8 141.98 517.12 147.02 532.64 147.02C547.84 147.02 559.28 142.94 566.96 134.78C574.8 126.46 579.52 115.58 581.12 102.14H538.64V79.1H612.08V171.5H583.76L581.36 149.42C575.92 157.42 569.12 163.58 560.96 167.9C552.8 172.22 542.4 174.38 529.76 174.38ZM706.745 174.38C694.425 174.38 683.305 171.98 673.385 167.18C663.465 162.22 655.545 154.78 649.625 144.86C643.865 134.94 640.985 122.38 640.985 107.18V3.49999H671.705V107.42C671.705 120.54 674.825 130.3 681.065 136.7C687.465 143.1 696.265 146.3 707.465 146.3C718.505 146.3 727.225 143.1 733.625 136.7C740.025 130.3 743.225 120.54 743.225 107.42V3.49999H773.945V107.18C773.945 122.38 770.905 134.94 764.825 144.86C758.745 154.78 750.585 162.22 740.345 167.18C730.265 171.98 719.065 174.38 706.745 174.38ZM805.304 171.5V3.49999H836.024V171.5H805.304ZM868.586 171.5V3.49999H925.946C945.626 3.49999 961.786 7.01999 974.426 14.06C987.226 20.94 996.666 30.7 1002.75 43.34C1008.99 55.82 1012.11 70.54 1012.11 87.5C1012.11 104.46 1008.99 119.26 1002.75 131.9C996.666 144.38 987.226 154.14 974.426 161.18C961.786 168.06 945.626 171.5 925.946 171.5H868.586ZM899.306 145.1H924.506C938.586 145.1 949.706 142.86 957.866 138.38C966.026 133.74 971.866 127.18 975.386 118.7C978.906 110.06 980.666 99.66 980.666 87.5C980.666 75.5 978.906 65.18 975.386 56.54C971.866 47.9 966.026 41.26 957.866 36.62C949.706 31.98 938.586 29.66 924.506 29.66H899.306V145.1ZM1039.21 171.5V3.49999H1148.89V28.22H1069.93V74.3H1141.69V98.3H1069.93V146.78H1148.89V171.5H1039.21Z" fill="black"/>
</svg>
