<svg width="66" height="71" viewBox="0 0 66 71" fill="none" xmlns="http://www.w3.org/2000/svg">
<mask id="mask0_16_3" style="mask-type:luminance" maskUnits="userSpaceOnUse" x="0" y="0" width="66" height="71">
<path d="M65.7102 0H0.775635V70.3529H65.7102V0Z" fill="white"/>
</mask>
<g mask="url(#mask0_16_3)">
<path d="M42.0848 38.8025C48.1311 41.2824 56.2697 40.8304 61.4515 37.7268L65.7102 35.1765L61.4515 32.6261C56.2697 29.5227 48.1315 29.0708 42.0848 31.5503L37.5504 33.4099C37.5221 33.311 37.488 33.2154 37.4546 33.1192L41.8617 30.9666C47.7558 28.0877 53.2152 21.5332 54.8542 15.3688L56.2009 10.3028L51.525 11.7619C45.8354 13.5374 39.7858 19.4526 37.1283 25.8383L35.2095 30.4502C35.1208 30.4036 35.0322 30.3573 34.9407 30.3169L36.5897 25.5967C38.8783 19.0457 38.4611 10.2282 35.5968 4.61385L33.2429 0L30.889 4.61399C28.0246 10.2283 27.6075 19.0457 29.8961 25.5969L31.5451 30.3171C31.4535 30.3575 31.3648 30.4038 31.2763 30.4504L29.3573 25.8385C26.7001 19.4528 20.6505 13.5375 14.9608 11.762L10.2849 10.3029L11.6316 15.369C13.2704 21.5332 18.7301 28.0878 24.624 30.9668L29.0311 33.1194C28.9977 33.2156 28.9635 33.3111 28.9355 33.4101L24.401 31.5505C18.3545 29.0708 10.2161 29.5229 5.03414 32.6262L0.775635 35.1765L5.03427 37.7268C10.2162 40.8304 18.3545 41.2824 24.4011 38.8025L29.1475 36.8561C29.185 36.9448 29.2226 37.0338 29.2647 37.1196L24.6242 39.3864C18.7302 42.2652 13.2706 48.8197 11.6318 54.984L10.2851 60.0501L14.961 58.591C20.6505 56.8156 26.7003 50.9004 29.3574 44.5148L31.511 39.3393C31.5906 39.3751 31.6732 39.4047 31.755 39.436L29.8962 44.7564C27.6075 51.3073 28.0248 60.125 30.8891 65.7392L33.2429 70.3533L35.5971 65.7392C38.4614 60.125 38.8786 51.3077 36.59 44.7564L34.7309 39.4356C34.8127 39.4047 34.8955 39.3751 34.9751 39.3389L37.1286 44.5144C39.7858 50.9004 45.8354 56.8153 51.525 58.591L56.2009 60.0501L54.8542 54.984C53.2155 48.8197 47.7558 42.2652 41.862 39.386L37.2212 37.1196C37.2634 37.0338 37.301 36.9448 37.3384 36.8558L42.0848 38.8025Z" fill="black"/>
</g>
</svg>
